<?xml version="1.0" encoding="UTF-8"?>
<svg xmlns="http://www.w3.org/2000/svg" version="1.1" viewBox="0 0 1920 1080">
  <!-- Generator: Adobe Illustrator 28.7.1, SVG Export Plug-In . SVG Version: 1.2.0 Build 142)  -->
  <g>
    <g id="katman_1">
      <g id="katman_1-2" data-name="katman_1">
        <g>
          <path d="M159.9,253.8v527.2h-76.3V253.8H11.6v-66.1h220.4v66.1h-72Z"/>
          <path d="M379.5,187.7c5.1,31.1,13.4,79.1,25,144.1,11.6,65,20.4,116.1,26.3,153.4,5.9,37.3,11.6,83.8,17,139.4,5.4,55.7,8,107.8,8,156.4h-76.3c0-59.3-3.4-125.1-10.1-197.5h-75.4c-6.8,72.4-10.1,138.2-10.1,197.5h-76.3c0-48.6,2.7-100.7,8-156.4,5.4-55.7,11.2-102.2,17.4-139.4,6.2-37.3,15.1-88.4,26.7-153.4,11.6-65,19.6-113,24.1-144.1h95.8ZM300.6,517.4h61.9c-7.9-71.2-18.1-141.8-30.5-211.9-13,70.6-23.4,141.3-31.3,211.9h0Z"/>
          <path d="M485.4,187.7h76.3v527.2h143.3v66.1h-219.5V187.7Z"/>
          <path d="M734.6,187.7h219.5v66.1h-143.3v190.7l96.6-15.3,13.5,65.2-110.2,17v203.4h143.3v66.1h-219.5V187.7Z"/>
          <path d="M1149,187.7h219.5v66.1h-143.3v190.7l96.6-15.3,13.5,65.2-110.2,17v203.4h143.3v66.1h-219.5V187.7Z"/>
          <path d="M1561,452.1c17.5,18.1,32,40.3,43.7,66.5,11.6,26.3,20.4,55.1,26.3,86.4,5.9,31.3,10,60.2,12.3,86.4s3.9,56.1,5.1,89.4h-76.3c-4.6-139-25.7-232.5-63.6-280.5-1.7,1.7-6.7,5.8-14.8,12.3-8.2,6.5-14.6,11.8-19.1,15.7v252.6h-76.3V187.6h117c32.2,0,57.7,9.3,76.3,28,18.6,18.6,29.1,41.5,31.3,68.6,2.2,27.1-2,56.1-12.7,86.9-10.7,30.8-27.1,57.8-49.2,81h0ZM1475.4,436.1c23.2-20.4,43.2-50.3,60.2-89.8,21.4-49.2,20.6-78.9-2.6-89-5.1-2.2-11-3.4-17.8-3.4h-40.7l.8,182.2h0Z"/>
          <path d="M1832.2,187.7c5.1,31.1,13.4,79.1,25,144.1,11.6,65,20.4,116.1,26.3,153.4,5.9,37.3,11.6,83.8,17,139.4,5.3,55.7,8,107.8,8,156.4h-76.3c0-59.3-3.4-125.1-10.1-197.5h-75.4c-6.8,72.4-10.1,138.2-10.1,197.5h-76.3c0-48.6,2.7-100.7,8-156.4,5.3-55.7,11.2-102.2,17.4-139.4,6.2-37.3,15.1-88.4,26.7-153.4,11.6-65,19.6-113,24.1-144.1h95.8ZM1753.3,517.4h61.9c-7.9-71.2-18.1-141.8-30.5-211.9-13,70.6-23.4,141.3-31.3,211.9h0Z"/>
        </g>
        <g>
          <path d="M76.4,824.7h16.7v89.9h-16.7v-89.9Z"/>
          <path d="M293.5,824.7v89.9h-13.7l-49.6-60.9v60.9h-16.6v-89.9h13.7l49.6,60.9v-60.9h16.6Z"/>
          <path d="M432.2,838.8h-29.8v-14.1h76.3v14.1h-29.8v75.8h-16.7v-75.8Z"/>
          <path d="M655.1,900.6v14h-67.4v-89.9h65.6v14h-48.9v23.4h43.4v13.7h-43.4v24.8h50.7Z"/>
          <path d="M828.8,914.6l-18.4-26.3c-1.2.1-2.3.1-3.5.1h-20.3v26.2h-16.7v-89.9h37c23.6,0,38.3,12.1,38.3,32s-6.9,23.6-19.1,28.4l20.7,29.5h-18ZM806.2,838.8h-19.5v35.8h19.5c14.6,0,22.2-6.7,22.2-18s-7.6-17.9-22.2-17.9Z"/>
          <path d="M1018.5,893.8h-44.9l-8.9,20.8h-17.2l40.5-89.9h16.4l40.6,89.9h-17.5l-9-20.8ZM1013,880.7l-17-39.3-16.8,39.3h33.8Z"/>
          <path d="M1145,869.6c0-26.8,20.5-46.2,48.2-46.2s27.2,5.3,35.6,15l-10.8,10.1c-6.5-7.1-14.6-10.5-24-10.5-18.6,0-32.1,13.1-32.1,31.6s13.5,31.6,32.1,31.6,17.5-3.5,24-10.7l10.8,10.3c-8.3,9.8-20.9,15-35.7,15-27.5,0-48-19.4-48-46.2Z"/>
          <path d="M1358.3,838.8h-29.8v-14.1h76.3v14.1h-29.8v75.8h-16.7v-75.8Z"/>
          <path d="M1513.7,824.7h16.7v89.9h-16.7v-89.9Z"/>
          <path d="M1732.5,824.7l-39.2,89.9h-16.4l-39.3-89.9h18.1l29.9,69.3,30.2-69.3h16.7Z"/>
          <path d="M1905.8,900.6v14h-67.4v-89.9h65.6v14h-48.9v23.4h43.4v13.7h-43.4v24.8h50.7Z"/>
        </g>
      </g>
    </g>
  </g>
</svg>