<?xml version="1.0" encoding="UTF-8"?>
<svg id="Layer_2" data-name="Layer 2" xmlns="http://www.w3.org/2000/svg" viewBox="0 0 541.51 160">
  <defs>
    <style>
      .cls-1 {
        fill: #f0645f;
      }

      .cls-2 {
        fill: #fff;
      }

      .cls-3 {
        fill: #333;
      }
    </style>
  </defs>
  <g id="Layer_1-2" data-name="Layer 1">
    <g>
      <path class="cls-2" d="m75.39,95.63h39.7c4.01,0,7.27,3.26,7.27,7.27v2.03h-54.24v-2.03c0-4.01,3.26-7.27,7.27-7.27Z" transform="translate(190.48 200.55) rotate(-180)"/>
      <g>
        <path class="cls-2" d="m135.87,28.05c-14.96,0-27.09,12.13-27.09,27.09s12.13,27.09,27.09,27.09c6,0,11.54-1.95,16.03-5.25v35.34c0,7.07-5.73,12.8-12.8,12.8h-30.32v11.06h32.85c11.78,0,21.33-9.55,21.33-21.33v-59.71c0-14.96-12.13-27.09-27.09-27.09Zm0,43.12c-8.85,0-16.03-7.18-16.03-16.03s7.18-16.03,16.03-16.03,16.03,7.18,16.03,16.03-7.18,16.03-16.03,16.03Z"/>
        <path class="cls-2" d="m38.51,112.32v-35.34c4.49,3.3,10.03,5.25,16.03,5.25,14.96,0,27.09-12.13,27.09-27.09s-12.13-27.09-27.09-27.09-27.09,12.13-27.09,27.09h0v59.71c0,11.78,9.55,21.33,21.33,21.33h32.85v-11.06h-30.32c-7.07,0-12.8-5.73-12.8-12.8Zm16.03-73.21c8.85,0,16.03,7.18,16.03,16.03s-7.18,16.03-16.03,16.03-16.03-7.18-16.03-16.03,7.18-16.03,16.03-16.03Z"/>
      </g>
      <g>
        <path class="cls-3" d="m220.34,78.85c2.54,1.48,5.61,2.23,9.21,2.23,3.01,0,5.78-.72,8.3-2.16,2.52-1.44,4.64-3.56,6.38-6.38.1-.17.2-.35.3-.52l1.29,7.97h13.76l-2.5-13.29v-25.23h-13.76v18.49c0,2.07-.36,3.85-1.08,5.33-.72,1.48-1.73,2.62-3.04,3.41-1.31.79-2.92,1.18-4.86,1.18-2.61,0-4.61-.76-6-2.29-1.39-1.53-2.09-3.71-2.09-6.54v-19.57h-13.76v21.52c0,3.64.67,6.83,2.02,9.55,1.35,2.72,3.29,4.82,5.84,6.31Z"/>
        <path class="cls-3" d="m277.86,72.58c1.72,2.51,3.84,4.5,6.34,5.97,2.88,1.69,6.14,2.53,9.78,2.53s7.09-.84,9.95-2.53c2.86-1.69,5.08-4.07,6.68-7.15,1.6-3.08,2.39-6.62,2.39-10.63s-.8-7.67-2.39-10.73c-1.6-3.06-3.82-5.44-6.68-7.15-2.86-1.71-6.17-2.56-9.95-2.56s-6.85.84-9.75,2.53c-2.53,1.47-4.65,3.45-6.38,5.94v-20.75h-13.83v51.95h13.83v-7.42Zm6.68-20.45c1.66-.85,3.42-1.28,5.26-1.28s3.46.43,4.86,1.28c1.39.85,2.48,2.02,3.27,3.51.79,1.48,1.18,3.19,1.18,5.13s-.39,3.58-1.18,5.06c-.79,1.48-1.88,2.64-3.27,3.47-1.39.83-3.01,1.25-4.86,1.25s-3.6-.42-5.26-1.25c-1.66-.83-3.13-1.99-4.39-3.47-1.26-1.48-2.23-3.17-2.9-5.06.67-1.93,1.64-3.64,2.9-5.13,1.26-1.48,2.72-2.65,4.39-3.51Z"/>
        <polygon class="cls-3" points="317.59 43.6 317.59 80 331.42 80 331.42 43.6 324.54 44.95 317.59 43.6"/>
        <path class="cls-3" d="m318.67,39.62c1.48,1.19,3.42,1.79,5.8,1.79s4.44-.6,5.9-1.79c1.46-1.19,2.19-2.8,2.19-4.82s-.73-3.71-2.19-4.92c-1.46-1.21-3.43-1.82-5.9-1.82s-4.32.61-5.8,1.82c-1.48,1.21-2.23,2.86-2.23,4.92s.74,3.63,2.23,4.82Z"/>
        <polygon class="cls-3" points="369 80 384.52 80 370.18 56.79 383.51 41.48 369 41.48 351.46 63.07 351.46 28.05 337.63 28.05 337.63 80 349.98 80 361.36 66.92 369 80"/>
        <path class="cls-3" d="m250.53,112.58c-2.56-1.01-6.07-1.65-10.52-1.92l-8.97-.67c-2.16-.18-3.63-.49-4.42-.94-.79-.45-1.18-1.06-1.18-1.82,0-.99.64-1.75,1.92-2.29,1.28-.54,3.16-.81,5.63-.81,2.11,0,3.85.23,5.2.67,1.35.45,2.41,1.02,3.17,1.72.76.7,1.26,1.47,1.48,2.33h13.97c-.31-2.7-1.48-5.05-3.51-7.05-2.02-2-4.72-3.56-8.1-4.69-3.37-1.12-7.22-1.69-11.54-1.69s-8.18.48-11.44,1.45c-3.26.97-5.8,2.41-7.62,4.32-1.82,1.91-2.73,4.33-2.73,7.25,0,2.16.58,4.08,1.75,5.77,1.17,1.69,3.09,3.06,5.77,4.12,2.68,1.06,6.28,1.74,10.83,2.06l6.81.54c2.61.23,4.45.55,5.53.98,1.08.43,1.62,1.07,1.62,1.92,0,1.08-.71,1.89-2.13,2.43-1.42.54-3.5.81-6.24.81-2.11,0-3.94-.19-5.46-.57-1.53-.38-2.76-.94-3.68-1.69-.92-.74-1.54-1.63-1.86-2.66h-13.97c.13,2.79,1.21,5.24,3.24,7.35,2.02,2.11,4.85,3.76,8.47,4.93,3.62,1.17,7.84,1.75,12.65,1.75s8.68-.52,12.01-1.55c3.33-1.03,5.89-2.56,7.69-4.59,1.8-2.02,2.7-4.52,2.7-7.49,0-2.29-.54-4.27-1.62-5.94-1.08-1.66-2.9-3-5.47-4.01Z"/>
        <path class="cls-3" d="m287.5,125.63c-2.97,0-5.02-.56-6.14-1.69-1.12-1.12-1.69-3.08-1.69-5.87v-11.33h16.19v-10.19h-16.19v-10.39h-7.83l-5.94,11.4-7.83,3.17v6h7.83v13.22c0,3.28.65,6.15,1.96,8.6,1.3,2.45,3.32,4.33,6.04,5.63,2.72,1.3,6.22,1.96,10.49,1.96,2.34,0,4.61-.2,6.81-.61,2.2-.4,3.98-.85,5.33-1.35v-10.39c-1.21.54-2.55.98-4.01,1.32-1.46.34-3.14.51-5.03.51Z"/>
        <path class="cls-3" d="m344.92,96.56h-13.76v18.49c0,2.07-.36,3.85-1.08,5.33-.72,1.48-1.73,2.62-3.04,3.41-1.31.79-2.92,1.18-4.86,1.18-2.61,0-4.61-.76-6-2.29-1.39-1.53-2.09-3.71-2.09-6.54v-19.57h-13.76v21.52c0,3.64.67,6.83,2.02,9.55,1.35,2.72,3.29,4.82,5.84,6.31,2.54,1.48,5.61,2.23,9.21,2.23,3.01,0,5.78-.72,8.3-2.16,2.52-1.44,4.64-3.56,6.38-6.38.1-.17.2-.35.3-.52l1.29,7.97h13.76l-2.5-13.29v-25.23Z"/>
        <path class="cls-3" d="m388.23,83.13l-2.58,21.36c-1.83-2.78-4.08-4.97-6.77-6.55-2.86-1.69-6.11-2.53-9.75-2.53s-7.1.86-9.95,2.56c-2.86,1.71-5.09,4.09-6.71,7.15-1.62,3.06-2.43,6.64-2.43,10.73s.81,7.55,2.43,10.63c1.62,3.08,3.86,5.46,6.71,7.15,2.86,1.69,6.17,2.53,9.95,2.53s6.89-.84,9.75-2.53c2.73-1.61,5-3.86,6.83-6.72l1.03,8.17h14.24l-2.43-20.31,3.98-31.64h-14.3Zm-9.65,41.26c-1.66.83-3.44,1.25-5.33,1.25s-3.4-.42-4.79-1.25c-1.39-.83-2.49-1.99-3.27-3.47-.79-1.48-1.18-3.17-1.18-5.06s.39-3.64,1.18-5.13c.79-1.48,1.88-2.65,3.27-3.51,1.39-.85,2.99-1.28,4.79-1.28,1.89,0,3.67.43,5.33,1.28,1.66.85,3.13,2.02,4.39,3.51,1.26,1.48,2.2,3.19,2.83,5.13-.63,1.89-1.57,3.58-2.83,5.06-1.26,1.48-2.72,2.64-4.39,3.47Z"/>
        <path class="cls-3" d="m418.96,84.95c-1.46-1.21-3.43-1.82-5.9-1.82s-4.32.61-5.8,1.82c-1.48,1.21-2.23,2.86-2.23,4.92s.74,3.63,2.23,4.82c1.48,1.19,3.42,1.79,5.8,1.79s4.44-.6,5.9-1.79c1.46-1.19,2.19-2.8,2.19-4.82s-.73-3.71-2.19-4.92Z"/>
        <polygon class="cls-3" points="406.18 98.68 406.18 135.08 420.01 135.08 420.01 98.68 413.13 100.03 406.18 98.68"/>
        <path class="cls-3" d="m462.07,97.97c-3.71-1.71-8.02-2.56-12.92-2.56s-9.27.86-12.95,2.56c-3.69,1.71-6.57,4.09-8.64,7.15-2.07,3.06-3.1,6.64-3.1,10.73s1.03,7.55,3.1,10.63c2.07,3.08,4.95,5.46,8.64,7.15,3.69,1.69,8,2.53,12.95,2.53s9.21-.84,12.92-2.53c3.71-1.69,6.6-4.07,8.67-7.15,2.07-3.08,3.1-6.65,3.1-10.69s-1.04-7.6-3.1-10.66c-2.07-3.06-4.96-5.44-8.67-7.15Zm-3.47,23.31c-.86,1.51-2.08,2.67-3.68,3.47-1.6.81-3.52,1.21-5.77,1.21s-4.18-.4-5.8-1.21c-1.62-.81-2.86-1.98-3.71-3.51-.86-1.53-1.28-3.35-1.28-5.46s.43-3.92,1.28-5.43c.85-1.51,2.09-2.66,3.71-3.47,1.62-.81,3.55-1.21,5.8-1.21s4.17.4,5.77,1.21c1.6.81,2.82,1.97,3.68,3.47.85,1.51,1.28,3.34,1.28,5.5s-.43,3.92-1.28,5.43Z"/>
        <path class="cls-3" d="m515.88,112.58c-2.56-1.01-6.07-1.65-10.52-1.92l-8.97-.67c-2.16-.18-3.63-.49-4.42-.94-.79-.45-1.18-1.06-1.18-1.82,0-.99.64-1.75,1.92-2.29,1.28-.54,3.16-.81,5.63-.81,2.11,0,3.85.23,5.2.67,1.35.45,2.41,1.02,3.17,1.72.76.7,1.26,1.47,1.48,2.33h13.97c-.31-2.7-1.48-5.05-3.51-7.05-2.02-2-4.72-3.56-8.1-4.69-3.37-1.12-7.22-1.69-11.54-1.69s-8.17.48-11.44,1.45c-3.26.97-5.8,2.41-7.62,4.32-1.82,1.91-2.73,4.33-2.73,7.25,0,2.16.58,4.08,1.75,5.77,1.17,1.69,3.09,3.06,5.77,4.12,2.68,1.06,6.28,1.74,10.83,2.06l6.81.54c2.61.23,4.45.55,5.53.98,1.08.43,1.62,1.07,1.62,1.92,0,1.08-.71,1.89-2.13,2.43-1.42.54-3.5.81-6.24.81-2.11,0-3.94-.19-5.46-.57-1.53-.38-2.76-.94-3.68-1.69-.92-.74-1.54-1.63-1.86-2.66h-13.97c.13,2.79,1.21,5.24,3.24,7.35,2.02,2.11,4.85,3.76,8.47,4.93,3.62,1.17,7.84,1.75,12.65,1.75s8.68-.52,12.01-1.55c3.33-1.03,5.89-2.56,7.69-4.59,1.8-2.02,2.7-4.52,2.7-7.49,0-2.29-.54-4.27-1.62-5.94-1.08-1.66-2.9-3-5.47-4.01Z"/>
        <path class="cls-3" d="m540.5,124.08c-.67-1.17-1.6-2.1-2.77-2.8-1.17-.7-2.5-1.05-3.98-1.05s-2.76.35-3.95,1.05c-1.19.7-2.13,1.63-2.8,2.8-.67,1.17-1.01,2.47-1.01,3.91s.34,2.76,1.01,3.95c.67,1.19,1.61,2.13,2.8,2.8,1.19.67,2.51,1.01,3.95,1.01s2.81-.34,3.98-1.01c1.17-.67,2.09-1.61,2.77-2.8.67-1.19,1.01-2.51,1.01-3.95s-.34-2.74-1.01-3.91Z"/>
      </g>
      <g>
        <path class="cls-1" d="m54.25,70.15c8.9,0,16.12-7.18,16.12-16.03s-7.22-16.03-16.12-16.03-16.12,7.18-16.12,16.03,7.22,16.03,16.12,16.03Z"/>
        <ellipse class="cls-1" cx="136.04" cy="54.12" rx="16.12" ry="16.03"/>
        <path class="cls-1" d="m158.67,0H31.8C14.24,0,0,14.16,0,31.62v96.76c0,17.46,14.24,31.62,31.8,31.62h126.87c17.56,0,31.8-14.16,31.8-31.62V31.62c0-17.46-14.24-31.62-31.8-31.62Zm-77.18,135.15h-33.04c-11.85,0-21.45-9.55-21.45-21.33v-59.71h0c0-14.96,12.2-27.09,27.25-27.09s27.25,12.13,27.25,27.09-12.2,27.09-27.25,27.09c-6.03,0-11.61-1.95-16.12-5.25v35.34c0,7.07,5.76,12.8,12.87,12.8h30.5v11.06Zm40.96-40.55v2.39c0,3.82-3.11,6.91-6.95,6.91h-40.65c-3.84,0-6.95-3.09-6.95-6.91v-2.39h54.55Zm40.84,19.22c0,11.78-9.6,21.33-21.45,21.33h-33.04v-11.06h30.5c7.11,0,12.87-5.73,12.87-12.8v-35.34c-4.51,3.3-10.09,5.25-16.12,5.25-15.05,0-27.25-12.13-27.25-27.09s12.2-27.09,27.25-27.09,27.25,12.13,27.25,27.09v59.71Z"/>
      </g>
    </g>
  </g>
</svg>