<?xml version="1.0" encoding="UTF-8"?>
<svg id="katman_2" data-name="katman 2" xmlns="http://www.w3.org/2000/svg" xmlns:xlink="http://www.w3.org/1999/xlink" viewBox="0 0 134.3 168.61">
  <defs>
    <style>
      .cls-1 {
        fill: url(#linear-gradient-2);
      }

      .cls-2 {
        fill: url(#linear-gradient-17);
      }

      .cls-3 {
        fill: url(#linear-gradient-15);
      }

      .cls-4 {
        fill: url(#linear-gradient-18);
      }

      .cls-5 {
        fill: url(#linear-gradient-14);
      }

      .cls-6 {
        fill: url(#linear-gradient-20);
      }

      .cls-7 {
        fill: url(#linear-gradient-6);
      }

      .cls-8 {
        fill: url(#linear-gradient-11);
      }

      .cls-9 {
        fill: url(#linear-gradient-10);
      }

      .cls-10 {
        fill: url(#linear-gradient-16);
      }

      .cls-11 {
        fill: url(#linear-gradient-21);
      }

      .cls-12 {
        fill: url(#linear-gradient-5);
      }

      .cls-13 {
        fill: url(#linear-gradient-7);
      }

      .cls-14 {
        fill: url(#linear-gradient-24);
      }

      .cls-15 {
        fill: url(#linear-gradient-9);
      }

      .cls-16 {
        fill: url(#linear-gradient-22);
      }

      .cls-17 {
        fill: url(#linear-gradient-3);
      }

      .cls-18 {
        fill: url(#linear-gradient);
      }

      .cls-19 {
        fill: url(#linear-gradient-23);
      }

      .cls-20 {
        fill: url(#linear-gradient-19);
      }

      .cls-21 {
        fill: url(#linear-gradient-4);
      }

      .cls-22 {
        fill: url(#linear-gradient-8);
      }

      .cls-23 {
        fill: url(#linear-gradient-12);
      }

      .cls-24 {
        fill: url(#linear-gradient-13);
      }
    </style>
    <linearGradient id="linear-gradient" x1="36.58" y1="108.2" x2="95.39" y2="6.35" gradientUnits="userSpaceOnUse">
      <stop offset="0" stop-color="#FFF"/>
      <stop offset=".07" stop-color="#FFF"/>
      <stop offset=".17" stop-color="#FFF"/>
      <stop offset=".25" stop-color="#FFF"/>
      <stop offset=".39" stop-color="#FFF"/>
      <stop offset=".44" stop-color="#FFF"/>
      <stop offset=".72" stop-color="#FFF"/>
      <stop offset=".82" stop-color="#FFF"/>
      <stop offset=".98" stop-color="#FFF"/>
      <stop offset=".99" stop-color="#FFF"/>
      <stop offset="1" stop-color="#FFF"/>
      <stop offset="1" stop-color="#FFF"/>
      <stop offset="1" stop-color="#FFF"/>
      <stop offset="1" stop-color="#FFF"/>
      <stop offset="1" stop-color="#FFF"/>
    </linearGradient>
    <linearGradient id="linear-gradient-2" x1="1.62" y1="152.95" x2="12.86" y2="133.48" gradientUnits="userSpaceOnUse">
      <stop offset="0" stop-color="#FFF"/>
      <stop offset=".11" stop-color="#FFF"/>
      <stop offset=".31" stop-color="#FFF"/>
      <stop offset=".44" stop-color="#FFF"/>
      <stop offset=".65" stop-color="#FFF"/>
      <stop offset=".77" stop-color="#FFF"/>
      <stop offset=".97" stop-color="#FFF"/>
      <stop offset=".99" stop-color="#FFF"/>
      <stop offset="1" stop-color="#FFF"/>
      <stop offset="1" stop-color="#FFF"/>
      <stop offset="1" stop-color="#FFF"/>
      <stop offset="1" stop-color="#FFF"/>
      <stop offset="1" stop-color="#FFF"/>
    </linearGradient>
    <linearGradient id="linear-gradient-3" x1="23.61" y1="151.33" x2="33.6" y2="134.04" xlink:href="#linear-gradient-2"/>
    <linearGradient id="linear-gradient-4" x1="44.9" y1="150.95" x2="57.7" y2="128.78" xlink:href="#linear-gradient-2"/>
    <linearGradient id="linear-gradient-5" x1="66.72" y1="156.07" x2="78.24" y2="136.13" xlink:href="#linear-gradient-2"/>
    <linearGradient id="linear-gradient-6" x1="84.15" y1="153.46" x2="96.51" y2="132.06" xlink:href="#linear-gradient-2"/>
    <linearGradient id="linear-gradient-7" x1="97.9" y1="150.36" x2="109.49" y2="130.29" xlink:href="#linear-gradient-2"/>
    <linearGradient id="linear-gradient-8" x1="111.95" y1="154.01" x2="123.49" y2="134.01" xlink:href="#linear-gradient-2"/>
    <linearGradient id="linear-gradient-9" x1="125.6" y1="150.36" x2="137.19" y2="130.29" xlink:href="#linear-gradient-2"/>
    <linearGradient id="linear-gradient-10" x1=".26" y1="167.28" x2="4.22" y2="160.41" xlink:href="#linear-gradient-2"/>
    <linearGradient id="linear-gradient-11" x1="8.53" y1="166.17" x2="12.33" y2="159.59" xlink:href="#linear-gradient-2"/>
    <linearGradient id="linear-gradient-12" x1="16" y1="167.26" x2="19.16" y2="161.79" xlink:href="#linear-gradient-2"/>
    <linearGradient id="linear-gradient-13" x1="23.28" y1="166.17" x2="27.08" y2="159.59" xlink:href="#linear-gradient-2"/>
    <linearGradient id="linear-gradient-14" x1="30.5" y1="167.59" x2="34.56" y2="160.56" xlink:href="#linear-gradient-2"/>
    <linearGradient id="linear-gradient-15" x1="38.24" y1="166.17" x2="42.04" y2="159.59" xlink:href="#linear-gradient-2"/>
    <linearGradient id="linear-gradient-16" x1="46.45" y1="167.69" x2="51.13" y2="159.59" xlink:href="#linear-gradient-2"/>
    <linearGradient id="linear-gradient-17" x1="64.38" y1="166.77" x2="68.67" y2="159.34" xlink:href="#linear-gradient-2"/>
    <linearGradient id="linear-gradient-18" x1="74.6" y1="167.25" x2="78.5" y2="160.5" xlink:href="#linear-gradient-2"/>
    <linearGradient id="linear-gradient-19" x1="85.69" y1="166.49" x2="89.89" y2="159.22" xlink:href="#linear-gradient-2"/>
    <linearGradient id="linear-gradient-20" x1="95.86" y1="167.26" x2="99.02" y2="161.79" xlink:href="#linear-gradient-2"/>
    <linearGradient id="linear-gradient-21" x1="104.96" y1="167.26" x2="108.12" y2="161.79" xlink:href="#linear-gradient-2"/>
    <linearGradient id="linear-gradient-22" x1="114.21" y1="167.35" x2="118.48" y2="159.95" xlink:href="#linear-gradient-2"/>
    <linearGradient id="linear-gradient-23" x1="124.07" y1="167.49" x2="128.06" y2="160.58" xlink:href="#linear-gradient-2"/>
    <linearGradient id="linear-gradient-24" x1="131.99" y1="166.17" x2="135.79" y2="159.59" xlink:href="#linear-gradient-2"/>
  </defs>
  <g id="Layer_1" data-name="Layer 1">
    <path class="cls-18" d="m90.66,60.1c0-17.39-6.5-33.25-17.2-45.3,2.85-4.33,6.7-7.94,11.22-10.51V.17c-.8-.11-1.61-.17-2.44-.17h-.09c-3.63.01-7.17,1.14-10.2,3.14-.84.55-1.66,1.12-2.47,1.71-1.2.87-2.37,1.78-3.5,2.72-1.14-.94-2.31-1.85-3.5-2.72-.81-.59-1.64-1.16-2.47-1.71C56.98,1.14,53.44.01,49.81,0h-.09c-.83,0-1.64.06-2.44.17v4.12c4.52,2.57,8.37,6.19,11.22,10.51-10.7,12.04-17.2,27.91-17.2,45.3,0,15.28,5.02,29.37,13.5,40.74h-7.52v13.54h37.4v-13.54h-7.52c8.48-11.37,13.5-25.46,13.5-40.74Zm-24.68-31.29c5.66,9.69,8.91,20.97,8.91,33s-3.24,23.31-8.91,33.01c-5.66-9.7-8.91-20.97-8.91-33.01s3.24-23.31,8.91-33Z"/>
    <g>
      <path class="cls-1" d="m.21,133.24h9.69c2.38,0,4.05.59,5.16,1.7.76.76,1.21,1.75,1.21,3.05v.05c0,2.19-1.24,3.48-2.92,4.21,2.29.75,3.75,2.05,3.75,4.62v.05c0,3.24-2.65,5.21-7.15,5.21H.21v-18.89Zm8.4,7.53c1.59,0,2.48-.54,2.48-1.65v-.05c0-1.03-.81-1.62-2.38-1.62h-3.4v3.32h3.29Zm.76,7.15c1.59,0,2.51-.62,2.51-1.73v-.05c0-1.03-.81-1.7-2.56-1.7h-3.99v3.48h4.05Z"/>
      <path class="cls-17" d="m18.43,142.74v-.05c0-5.43,4.37-9.83,10.2-9.83s10.15,4.35,10.15,9.77v.05c0,5.43-4.37,9.83-10.2,9.83s-10.15-4.35-10.15-9.77Zm15.01,0v-.05c0-2.73-1.97-5.1-4.86-5.1s-4.78,2.32-4.78,5.05v.05c0,2.73,1.97,5.1,4.83,5.1s4.8-2.32,4.8-5.05Z"/>
      <path class="cls-21" d="m40.44,142.74v-.05c0-5.51,4.32-9.83,10.18-9.83,3.32,0,5.67,1.03,7.67,2.75l-3.08,3.7c-1.35-1.13-2.7-1.78-4.56-1.78-2.73,0-4.83,2.29-4.83,5.18v.05c0,3.05,2.13,5.24,5.13,5.24,1.27,0,2.24-.27,3.02-.78v-2.29h-3.73v-3.83h8.69v8.5c-2,1.65-4.78,2.92-8.21,2.92-5.88,0-10.28-4.05-10.28-9.77Zm4.67-15.09h3.1c.32.78.97,1.21,2.21,1.21s1.89-.43,2.24-1.21h3.08c-.35,2.7-2.32,4.08-5.32,4.08s-4.97-1.38-5.32-4.08Z"/>
      <path class="cls-12" d="m67.95,133.11h5.05l8.04,19.03h-5.61l-1.38-3.37h-7.29l-1.35,3.37h-5.51l8.04-19.03Zm4.59,11.58l-2.11-5.37-2.13,5.37h4.24Z"/>
      <path class="cls-7" d="m81.85,148.33l9.47-10.66h-9.15v-4.43h16.38v3.81l-9.47,10.66h9.47v4.43h-16.71v-3.81Z"/>
      <path class="cls-13" d="m100.97,133.24h5.26v18.89h-5.26v-18.89Zm.35-5.02h4.59v3.73h-4.59v-3.73Z"/>
      <path class="cls-22" d="m113.79,155.08l2.11-2.86c-4.21-1.03-7.29-4.72-7.29-9.47v-.05c0-5.51,4.24-9.83,9.96-9.83,3.86,0,6.34,1.62,8.02,3.94l-3.94,3.05c-1.08-1.35-2.32-2.21-4.13-2.21-2.64,0-4.51,2.24-4.51,4.99v.05c0,2.83,1.86,5.05,4.51,5.05,1.97,0,3.13-.92,4.27-2.29l3.94,2.81c-1.65,2.27-3.78,3.94-7.37,4.21l-1.51,4.35-4.05-1.73Z"/>
      <path class="cls-15" d="m128.67,133.24h5.26v18.89h-5.26v-18.89Zm.35-5.02h4.59v3.73h-4.59v-3.73Z"/>
      <path class="cls-9" d="m0,160.14h2.89c.79,0,1.43.23,1.82.62.29.29.45.66.45,1.1v.02c0,.95-.62,1.43-1.19,1.66.84.22,1.58.7,1.58,1.67v.02c0,1.17-1,1.91-2.51,1.91H0v-7Zm2.83,3.23c1.05,0,1.8-.51,1.8-1.44v-.02c0-.77-.63-1.29-1.75-1.29H.52v2.75h2.31Zm.23,3.29c1.2,0,1.96-.55,1.96-1.43v-.02c0-.86-.75-1.36-2.13-1.36H.52v2.81h2.54Z"/>
      <path class="cls-8" d="m10.08,158.73h.76v.76h-.76v-.76Zm.12,1.41h.52v7h-.52v-7Z"/>
      <path class="cls-23" d="m15.78,160.14h.52v6.52h4.11v.48h-4.63v-7Z"/>
      <path class="cls-24" d="m24.83,158.73h.76v.76h-.76v-.76Zm.12,1.41h.52v7h-.52v-7Z"/>
      <path class="cls-5" d="m31.82,168.36l.77-1.13c-.98-.07-1.75-.43-2.51-1.11l.34-.39c.77.71,1.48,1.04,2.51,1.04s1.77-.59,1.77-1.39v-.02c0-.74-.39-1.17-1.98-1.49-1.68-.34-2.36-.91-2.36-1.97v-.02c0-1.04.95-1.84,2.25-1.84,1.02,0,1.69.28,2.4.85l-.33.41c-.66-.57-1.32-.79-2.09-.79-1.03,0-1.71.59-1.71,1.32v.02c0,.74.38,1.19,2.04,1.53,1.62.33,2.3.91,2.3,1.93v.02c0,1.09-.9,1.84-2.17,1.9l-.68,1.39-.55-.26Z"/>
      <path class="cls-3" d="m39.79,158.73h.76v.76h-.76v-.76Zm.12,1.41h.52v7h-.52v-7Z"/>
      <path class="cls-10" d="m45.49,160.14h.49l2.81,4.14,2.81-4.14h.49v7h-.52v-6.08l-2.77,4.03h-.04l-2.77-4.03v6.08h-.5v-7Z"/>
      <path class="cls-2" d="m62.68,163.66v-.02c0-1.91,1.41-3.62,3.53-3.62s3.51,1.69,3.51,3.6v.02c0,1.91-1.41,3.62-3.53,3.62s-3.51-1.69-3.51-3.6Zm6.5,0v-.02c0-1.73-1.26-3.15-2.99-3.15s-2.97,1.4-2.97,3.13v.02c0,1.73,1.26,3.15,2.99,3.15s2.97-1.4,2.97-3.13Zm-4.22-5.03h.74v.76h-.74v-.76Zm1.76,0h.73v.76h-.73v-.76Z"/>
      <path class="cls-4" d="m74.4,160.14h2.33c2.2,0,3.72,1.51,3.72,3.48v.02c0,1.97-1.52,3.5-3.72,3.5h-2.33v-7Zm2.33,6.52c1.95,0,3.18-1.33,3.18-3v-.02c0-1.66-1.23-3.02-3.18-3.02h-1.81v6.04h1.81Z"/>
      <path class="cls-20" d="m85.02,164.23v-4.09h.52v4.04c0,1.65.89,2.6,2.37,2.6s2.33-.86,2.33-2.55v-4.09h.52v4.03c0,2.01-1.17,3.08-2.87,3.08s-2.87-1.06-2.87-3.02Zm1.63-5.45h.74v.76h-.74v-.76Zm1.76,0h.73v.76h-.73v-.76Z"/>
      <path class="cls-6" d="m95.64,160.14h.52v6.52h4.11v.48h-4.63v-7Z"/>
      <path class="cls-11" d="m104.74,160.14h.52v6.52h4.11v.48h-4.63v-7Z"/>
      <path class="cls-16" d="m113.84,160.14h4.98v.48h-4.46v2.75h4.01v.48h-4.01v2.81h4.51v.48h-5.03v-7Z"/>
      <path class="cls-19" d="m123.45,160.14h2.94c.86,0,1.55.27,1.97.69.33.33.53.8.53,1.3v.02c0,1.17-.87,1.84-2.05,2l2.31,2.99h-.66l-2.23-2.9h-2.29v2.9h-.52v-7Zm2.88,3.63c1.17,0,2.04-.59,2.04-1.6v-.02c0-.94-.74-1.53-2.01-1.53h-2.39v3.15h2.36Z"/>
      <path class="cls-14" d="m133.54,158.73h.76v.76h-.76v-.76Zm.12,1.41h.52v7h-.52v-7Z"/>
    </g>
  </g>
</svg>